<svg width="56" height="56" viewBox="0 0 56 56" fill="none" xmlns="http://www.w3.org/2000/svg">
<path d="M28 56C43.5 56 56 43.5 56 28C56 12.5 43.5 0 28 0C12.5 0 0 12.5 0 28C0 43.5 12.5 56 28 56Z" fill="#CF9B42"/>
<path d="M26 24C26 25.6569 24.6569 27 23 27C21.3431 27 20 25.6569 20 24C20 22.3431 21.3431 21 23 21C24.6569 21 26 22.3431 26 24Z" stroke="white" stroke-width="2"/>
<path d="M36 32C36 33.6569 34.6569 35 33 35C31.3431 35 30 33.6569 30 32C30 30.3431 31.3431 29 33 29C34.6569 29 36 30.3431 36 32Z" stroke="white" stroke-width="2"/>
<path d="M22 35L34 21" stroke="white" stroke-width="2" stroke-linecap="round"/>
</svg>
