<svg width="14" height="18" viewBox="0 0 14 18" fill="none" xmlns="http://www.w3.org/2000/svg">
<path fill-rule="evenodd" clip-rule="evenodd" d="M3 3.9C3 1.72566 4.77003 0 7 0C9.22997 0 11 1.72566 11 3.9V4H13C13.5523 4 14 4.44772 14 5V17C14 17.5523 13.5523 18 13 18H1C0.447715 18 0 17.5523 0 17V5C0 4.44772 0.447715 4 1 4H3V3.9ZM9 8V6H5V8C5 8.55228 4.55228 9 4 9C3.44772 9 3 8.55228 3 8V6H2V13H12V6H11V8C11 8.55228 10.5523 9 10 9C9.44772 9 9 8.55228 9 8ZM12 15H2V16H12V15ZM9 3.9V4H5V3.9C5 2.87434 5.82997 2 7 2C8.17003 2 9 2.87434 9 3.9Z" fill="white"/>
</svg>
