<svg width="20" height="23" viewBox="0 0 20 23" fill="none" xmlns="http://www.w3.org/2000/svg">
<path d="M0.999603 21.9998H-0.000396729V22.9998H0.999603V21.9998ZM18.9996 21.9998V22.9998H19.9996V21.9998H18.9996ZM9.99961 2.19971L10.5784 1.3842L9.99961 0.973476L9.42086 1.3842L9.99961 2.19971ZM9.99961 15.1997L10.5784 14.3842L9.99961 13.9735L9.42086 14.3842L9.99961 15.1997ZM-0.000396729 7.99976V21.9998H1.9996V7.99976H-0.000396729ZM0.999603 22.9998H18.9996V20.9998H0.999603V22.9998ZM19.9996 21.9998V7.99976H17.9996V21.9998H19.9996ZM1.17836 9.61521C2.72477 8.51776 4.29666 7.41993 5.8722 6.31955C7.44666 5.21993 9.02477 4.11776 10.5784 3.01521L9.42086 1.3842C7.87445 2.48165 6.30256 3.57949 4.72702 4.67986C3.15256 5.77949 1.57445 6.88165 0.0208623 7.9842L1.17836 9.61521ZM9.42086 3.01521C10.9745 4.11776 12.5526 5.21993 14.127 6.31955C15.7026 7.41993 17.2745 8.51776 18.8209 9.61521L19.9784 7.9842C18.4248 6.88165 16.8467 5.77949 15.2722 4.67986C13.6967 3.57949 12.1248 2.48165 10.5784 1.3842L9.42086 3.01521ZM1.17836 22.6152C2.72477 21.5178 4.29666 20.4199 5.8722 19.3195C7.44666 18.2199 9.02477 17.1178 10.5784 16.0152L9.42086 14.3842C7.87445 15.4817 6.30256 16.5795 4.72702 17.6799C3.15256 18.7795 1.57445 19.8816 0.0208623 20.9842L1.17836 22.6152ZM9.42086 16.0152C10.9745 17.1178 12.5526 18.2199 14.127 19.3195C15.7026 20.4199 17.2745 21.5178 18.8209 22.6152L19.9784 20.9842C18.4248 19.8816 16.8467 18.7795 15.2722 17.6799C13.6967 16.5795 12.1248 15.4817 10.5784 14.3842L9.42086 16.0152ZM0.759413 12.568L6.75941 17.568L8.03978 16.0316L2.03978 11.0316L0.759413 12.568ZM17.9594 11.0316L11.9594 16.0316L13.2398 17.568L19.2398 12.568L17.9594 11.0316Z" fill="white"/>
</svg>
