<svg width="16" height="14" viewBox="0 0 16 14" fill="none" xmlns="http://www.w3.org/2000/svg">
<path fill-rule="evenodd" clip-rule="evenodd" d="M11 4C11.5523 4 12 3.55228 12 3C12 2.44772 11.5523 2 11 2C10.4477 2 10 2.44772 10 3C10 3.55228 10.4477 4 11 4ZM11 0C12.3062 0 13.4175 0.834808 13.8293 2L15 2C15.5523 2 16 2.44772 16 3C16 3.55228 15.5523 4 15 4L13.8293 4C13.4175 5.16519 12.3062 6 11 6C9.69378 6 8.58254 5.16519 8.17071 4L1 4C0.447715 4 0 3.55228 0 3C0 2.44772 0.447715 2 1 2L8.17071 2C8.58254 0.834808 9.69378 0 11 0ZM15 12C15.5523 12 16 11.5523 16 11C16 10.4477 15.5523 10 15 10H7.82929C7.41746 8.83481 6.30622 8 5 8C3.69378 8 2.58254 8.83481 2.17071 10H1C0.447715 10 0 10.4477 0 11C0 11.5523 0.447715 12 1 12H2.17071C2.58254 13.1652 3.69378 14 5 14C6.30622 14 7.41746 13.1652 7.82929 12H15ZM4 11C4 11.5523 4.44772 12 5 12C5.55228 12 6 11.5523 6 11C6 10.4477 5.55228 10 5 10C4.44771 10 4 10.4477 4 11Z" fill="white"/>
</svg>
