<svg width="14" height="14" viewBox="0 0 14 14" fill="none" xmlns="http://www.w3.org/2000/svg">
<path d="M8 2C8 1.44772 7.55228 1 7 1C6.44772 1 6 1.44772 6 2H8ZM6 12C6 12.5523 6.44772 13 7 13C7.55228 13 8 12.5523 8 12H6ZM12 8.00001C12.5523 8.00001 13 7.55229 13 7.00001C13 6.44772 12.5523 6.00001 12 6.00001L12 8.00001ZM1.99999 6.00001C1.44771 6.00001 0.999992 6.44772 0.999992 7.00001C0.999992 7.55229 1.44771 8.00001 1.99999 8.00001L1.99999 6.00001ZM6 2L6 12H8L8 2H6ZM12 6.00001H1.99999L1.99999 8.00001H12L12 6.00001Z" fill="#CF9B42"/>
</svg>
